<?xml version="1.0" encoding="utf-8" standalone="no"?>
<!DOCTYPE svg PUBLIC "-//W3C//DTD SVG 1.1//EN"
  "http://www.w3.org/Graphics/SVG/1.1/DTD/svg11.dtd">
<svg xmlns:xlink="http://www.w3.org/1999/xlink" width="229.937756pt" height="240.365533pt" viewBox="0 0 229.937756 240.365533" xmlns="http://www.w3.org/2000/svg" version="1.1">
 <metadata>
  <rdf:RDF xmlns:dc="http://purl.org/dc/elements/1.1/" xmlns:cc="http://creativecommons.org/ns#" xmlns:rdf="http://www.w3.org/1999/02/22-rdf-syntax-ns#">
   <cc:Work>
    <dc:type rdf:resource="http://purl.org/dc/dcmitype/StillImage"/>
    <dc:date>2023-08-18T09:41:12.094504</dc:date>
    <dc:format>image/svg+xml</dc:format>
    <dc:creator>
     <cc:Agent>
      <dc:title>Matplotlib v3.7.1, https://matplotlib.org/</dc:title>
     </cc:Agent>
    </dc:creator>
   </cc:Work>
  </rdf:RDF>
 </metadata>
 <defs>
  <style type="text/css">*{stroke-linejoin: round; stroke-linecap: butt}</style>
 </defs>
 <g id="figure_1">
  <g id="patch_1">
   <path d="M 0 240.365533 
L 229.937756 240.365533 
L 229.937756 0 
L 0 0 
z
" style="fill: #ffffff"/>
  </g>
  <g id="axes_1">
   <g id="patch_2">
    <path d="M 39.785756 204.45418 
L 222.737756 204.45418 
L 222.737756 21.50218 
L 39.785756 21.50218 
z
" style="fill: #ffffff"/>
   </g>
   <g id="matplotlib.axis_1">
    <g id="xtick_1">
     <g id="line2d_1">
      <defs>
       <path id="m640d867414" d="M 0 0 
L 0 3.5 
" style="stroke: #000000; stroke-width: 0.8"/>
      </defs>
      <g>
       <use xlink:href="#m640d867414" x="48.101756" y="204.45418" style="stroke: #000000; stroke-width: 0.8"/>
      </g>
     </g>
     <g id="text_1">
      <!-- $\mathdefault{0.0}$ -->
      <g transform="translate(41.736716 218.372678) scale(0.1 -0.1)">
       <defs>
        <path id="CMR17-30" d="M 2688 2038 
C 2688 2430 2682 3099 2413 3613 
C 2176 4063 1798 4224 1466 4224 
C 1158 4224 768 4082 525 3620 
C 269 3137 243 2539 243 2038 
C 243 1671 250 1112 448 623 
C 723 -39 1216 -128 1466 -128 
C 1760 -128 2208 -7 2470 604 
C 2662 1048 2688 1568 2688 2038 
z
M 1466 -26 
C 1056 -26 813 328 723 816 
C 653 1196 653 1749 653 2109 
C 653 2604 653 3015 736 3407 
C 858 3954 1216 4121 1466 4121 
C 1728 4121 2067 3947 2189 3420 
C 2272 3054 2278 2623 2278 2109 
C 2278 1691 2278 1176 2202 797 
C 2067 96 1690 -26 1466 -26 
z
" transform="scale(0.015625)"/>
        <path id="CMMI12-3a" d="M 1178 307 
C 1178 492 1024 620 870 620 
C 685 620 557 467 557 313 
C 557 128 710 0 864 0 
C 1050 0 1178 153 1178 307 
z
" transform="scale(0.015625)"/>
       </defs>
       <use xlink:href="#CMR17-30" transform="scale(0.996264)"/>
       <use xlink:href="#CMMI12-3a" transform="translate(45.690477 0) scale(0.996264)"/>
       <use xlink:href="#CMR17-30" transform="translate(72.787654 0) scale(0.996264)"/>
      </g>
     </g>
    </g>
    <g id="xtick_2">
     <g id="line2d_2">
      <g>
       <use xlink:href="#m640d867414" x="81.365756" y="204.45418" style="stroke: #000000; stroke-width: 0.8"/>
      </g>
     </g>
     <g id="text_2">
      <!-- $\mathdefault{0.2}$ -->
      <g transform="translate(75.000716 218.372678) scale(0.1 -0.1)">
       <defs>
        <path id="CMR17-32" d="M 2669 990 
L 2554 990 
C 2490 537 2438 460 2413 422 
C 2381 371 1920 371 1830 371 
L 602 371 
C 832 620 1280 1073 1824 1596 
C 2214 1966 2669 2400 2669 3033 
C 2669 3788 2067 4224 1395 4224 
C 691 4224 262 3603 262 3027 
C 262 2777 448 2745 525 2745 
C 589 2745 781 2783 781 3007 
C 781 3206 614 3264 525 3264 
C 486 3264 448 3257 422 3244 
C 544 3788 915 4057 1306 4057 
C 1862 4057 2227 3616 2227 3033 
C 2227 2477 1901 1998 1536 1583 
L 262 147 
L 262 0 
L 2515 0 
L 2669 990 
z
" transform="scale(0.015625)"/>
       </defs>
       <use xlink:href="#CMR17-30" transform="scale(0.996264)"/>
       <use xlink:href="#CMMI12-3a" transform="translate(45.690477 0) scale(0.996264)"/>
       <use xlink:href="#CMR17-32" transform="translate(72.787654 0) scale(0.996264)"/>
      </g>
     </g>
    </g>
    <g id="xtick_3">
     <g id="line2d_3">
      <g>
       <use xlink:href="#m640d867414" x="114.629756" y="204.45418" style="stroke: #000000; stroke-width: 0.8"/>
      </g>
     </g>
     <g id="text_3">
      <!-- $\mathdefault{0.4}$ -->
      <g transform="translate(108.264716 218.372678) scale(0.1 -0.1)">
       <defs>
        <path id="CMR17-34" d="M 2150 4147 
C 2150 4281 2144 4288 2029 4288 
L 128 1254 
L 128 1088 
L 1779 1088 
L 1779 460 
C 1779 230 1766 166 1318 166 
L 1197 166 
L 1197 0 
C 1402 12 1747 12 1965 12 
C 2182 12 2528 12 2733 0 
L 2733 166 
L 2611 166 
C 2163 166 2150 230 2150 460 
L 2150 1088 
L 2803 1088 
L 2803 1254 
L 2150 1254 
L 2150 4147 
z
M 1798 3723 
L 1798 1254 
L 256 1254 
L 1798 3723 
z
" transform="scale(0.015625)"/>
       </defs>
       <use xlink:href="#CMR17-30" transform="scale(0.996264)"/>
       <use xlink:href="#CMMI12-3a" transform="translate(45.690477 0) scale(0.996264)"/>
       <use xlink:href="#CMR17-34" transform="translate(72.787654 0) scale(0.996264)"/>
      </g>
     </g>
    </g>
    <g id="xtick_4">
     <g id="line2d_4">
      <g>
       <use xlink:href="#m640d867414" x="147.893756" y="204.45418" style="stroke: #000000; stroke-width: 0.8"/>
      </g>
     </g>
     <g id="text_4">
      <!-- $\mathdefault{0.6}$ -->
      <g transform="translate(141.528716 218.372678) scale(0.1 -0.1)">
       <defs>
        <path id="CMR17-36" d="M 678 2198 
C 678 3712 1395 4076 1811 4076 
C 1946 4076 2272 4049 2400 3782 
C 2298 3782 2106 3782 2106 3558 
C 2106 3385 2246 3328 2336 3328 
C 2394 3328 2566 3353 2566 3571 
C 2566 3987 2246 4224 1805 4224 
C 1043 4224 243 3411 243 2011 
C 243 257 966 -128 1478 -128 
C 2099 -128 2688 431 2688 1295 
C 2688 2101 2170 2688 1517 2688 
C 1126 2688 838 2430 678 1979 
L 678 2198 
z
M 1478 25 
C 691 25 691 1212 691 1450 
C 691 1914 909 2585 1504 2585 
C 1613 2585 1926 2585 2138 2140 
C 2253 1889 2253 1624 2253 1302 
C 2253 954 2253 696 2118 438 
C 1978 173 1773 25 1478 25 
z
" transform="scale(0.015625)"/>
       </defs>
       <use xlink:href="#CMR17-30" transform="scale(0.996264)"/>
       <use xlink:href="#CMMI12-3a" transform="translate(45.690477 0) scale(0.996264)"/>
       <use xlink:href="#CMR17-36" transform="translate(72.787654 0) scale(0.996264)"/>
      </g>
     </g>
    </g>
    <g id="xtick_5">
     <g id="line2d_5">
      <g>
       <use xlink:href="#m640d867414" x="181.157756" y="204.45418" style="stroke: #000000; stroke-width: 0.8"/>
      </g>
     </g>
     <g id="text_5">
      <!-- $\mathdefault{0.8}$ -->
      <g transform="translate(174.792716 218.372678) scale(0.1 -0.1)">
       <defs>
        <path id="CMR17-38" d="M 1741 2289 
C 2144 2494 2554 2803 2554 3298 
C 2554 3884 1990 4224 1472 4224 
C 890 4224 378 3800 378 3215 
C 378 3054 416 2777 666 2533 
C 730 2469 998 2276 1171 2154 
C 883 2006 211 1652 211 945 
C 211 282 838 -128 1459 -128 
C 2144 -128 2720 366 2720 1022 
C 2720 1607 2330 1877 2074 2051 
L 1741 2289 
z
M 902 2855 
C 851 2887 595 3086 595 3388 
C 595 3781 998 4076 1459 4076 
C 1965 4076 2336 3716 2336 3298 
C 2336 2700 1670 2359 1638 2359 
C 1632 2359 1626 2359 1574 2398 
L 902 2855 
z
M 2080 1536 
C 2176 1466 2483 1253 2483 861 
C 2483 385 2010 25 1472 25 
C 890 25 448 443 448 951 
C 448 1459 838 1884 1280 2083 
L 2080 1536 
z
" transform="scale(0.015625)"/>
       </defs>
       <use xlink:href="#CMR17-30" transform="scale(0.996264)"/>
       <use xlink:href="#CMMI12-3a" transform="translate(45.690477 0) scale(0.996264)"/>
       <use xlink:href="#CMR17-38" transform="translate(72.787654 0) scale(0.996264)"/>
      </g>
     </g>
    </g>
    <g id="xtick_6">
     <g id="line2d_6">
      <g>
       <use xlink:href="#m640d867414" x="214.421756" y="204.45418" style="stroke: #000000; stroke-width: 0.8"/>
      </g>
     </g>
     <g id="text_6">
      <!-- $\mathdefault{1.0}$ -->
      <g transform="translate(208.056716 218.372678) scale(0.1 -0.1)">
       <defs>
        <path id="CMR17-31" d="M 1702 4083 
C 1702 4217 1696 4224 1606 4224 
C 1357 3927 979 3833 621 3820 
C 602 3820 570 3820 563 3808 
C 557 3795 557 3782 557 3648 
C 755 3648 1088 3686 1344 3839 
L 1344 467 
C 1344 243 1331 166 781 166 
L 589 166 
L 589 0 
C 896 6 1216 12 1523 12 
C 1830 12 2150 6 2458 0 
L 2458 166 
L 2266 166 
C 1715 166 1702 236 1702 467 
L 1702 4083 
z
" transform="scale(0.015625)"/>
       </defs>
       <use xlink:href="#CMR17-31" transform="scale(0.996264)"/>
       <use xlink:href="#CMMI12-3a" transform="translate(45.690477 0) scale(0.996264)"/>
       <use xlink:href="#CMR17-30" transform="translate(72.787654 0) scale(0.996264)"/>
      </g>
     </g>
    </g>
    <g id="text_7">
     <!-- False Positive Rate -->
     <g transform="translate(91.777832 231.228355) scale(0.1 -0.1)">
      <defs>
       <path id="CMSS17-46" d="M 2918 1984 
L 2918 2374 
L 1101 2374 
L 1101 3993 
L 1882 3993 
C 1958 3993 2035 3987 2112 3987 
L 3168 3987 
L 3168 4403 
L 563 4403 
L 563 0 
L 1101 0 
L 1101 1984 
L 2918 1984 
z
" transform="scale(0.015625)"/>
       <path id="CMSS17-61" d="M 2406 1789 
C 2406 2399 1978 2816 1402 2816 
C 1120 2816 813 2764 461 2559 
L 499 2133 
C 659 2250 934 2438 1395 2438 
C 1722 2438 1920 2185 1920 1782 
L 1920 1536 
C 896 1504 256 1209 256 711 
C 256 452 416 -64 947 -64 
C 1043 -64 1562 -52 1933 224 
L 1933 -13 
L 2406 -13 
L 2406 1789 
z
M 1920 824 
C 1920 711 1920 559 1728 446 
C 1562 339 1350 326 1261 326 
C 941 326 723 503 723 723 
C 723 1165 1722 1209 1920 1216 
L 1920 824 
z
" transform="scale(0.015625)"/>
       <path id="CMSS17-6c" d="M 947 4416 
L 474 4416 
L 474 0 
L 947 0 
L 947 4416 
z
" transform="scale(0.015625)"/>
       <path id="CMSS17-73" d="M 2061 2623 
C 1683 2803 1389 2816 1197 2816 
C 742 2816 198 2655 198 2009 
C 198 1363 902 1222 1094 1183 
C 1389 1126 1715 1062 1715 742 
C 1715 339 1254 339 1171 339 
C 915 339 563 409 243 639 
L 166 211 
C 531 0 883 -64 1178 -64 
C 1965 -64 2163 416 2163 780 
C 2163 1094 1984 1305 1862 1401 
C 1651 1567 1574 1587 1050 1695 
C 960 1708 646 1779 646 2067 
C 646 2431 1050 2431 1139 2431 
C 1555 2431 1811 2303 1984 2207 
L 2061 2623 
z
" transform="scale(0.015625)"/>
       <path id="CMSS17-65" d="M 2502 1375 
C 2502 1587 2490 2001 2285 2347 
C 2061 2713 1696 2816 1421 2816 
C 755 2816 192 2184 192 1363 
C 192 579 774 -64 1510 -64 
C 1798 -64 2150 19 2470 249 
C 2470 275 2458 414 2451 421 
C 2451 433 2432 629 2432 655 
C 2125 408 1773 326 1517 326 
C 1107 326 666 667 646 1375 
L 2502 1375 
z
M 698 1728 
C 781 2086 1062 2425 1421 2425 
C 1517 2425 1965 2412 2080 1728 
L 698 1728 
z
" transform="scale(0.015625)"/>
       <path id="CMSS17-50" d="M 2106 1856 
C 2874 1856 3501 2447 3501 3139 
C 3501 3818 2899 4416 2067 4416 
L 570 4416 
L 570 0 
L 1107 0 
L 1107 1856 
L 2106 1856 
z
M 1926 4057 
C 2669 4057 2995 3598 2995 3139 
C 2995 2711 2694 2227 1926 2227 
L 1094 2227 
L 1094 4057 
L 1926 4057 
z
" transform="scale(0.015625)"/>
       <path id="CMSS17-6f" d="M 2829 1356 
C 2829 2175 2221 2816 1504 2816 
C 768 2816 173 2156 173 1356 
C 173 544 787 -64 1498 -64 
C 2227 -64 2829 563 2829 1356 
z
M 1504 339 
C 1050 339 659 710 659 1407 
C 659 2150 1114 2425 1498 2425 
C 1914 2425 2342 2124 2342 1407 
C 2342 684 1926 339 1504 339 
z
" transform="scale(0.015625)"/>
       <path id="CMSS17-69" d="M 979 4224 
L 442 4224 
L 442 3686 
L 979 3686 
L 979 4224 
z
M 947 2752 
L 474 2752 
L 474 0 
L 947 0 
L 947 2752 
z
" transform="scale(0.015625)"/>
       <path id="CMSS17-74" d="M 1069 2380 
L 1901 2380 
L 1901 2752 
L 1069 2752 
L 1069 3520 
L 614 3520 
L 614 2752 
L 109 2752 
L 109 2380 
L 602 2380 
L 602 751 
C 602 384 685 -64 1107 -64 
C 1427 -64 1722 25 2003 172 
L 1901 551 
C 1747 416 1562 339 1363 339 
C 1082 339 1069 699 1069 860 
L 1069 2380 
z
" transform="scale(0.015625)"/>
       <path id="CMSS17-76" d="M 2675 2752 
L 2176 2752 
L 1747 1555 
C 1613 1164 1421 627 1389 352 
L 1382 352 
C 1370 467 1318 633 1286 748 
C 1248 889 1197 1056 1158 1171 
L 595 2752 
L 83 2752 
L 1094 0 
L 1664 0 
L 2675 2752 
z
" transform="scale(0.015625)"/>
       <path id="CMSS17-52" d="M 2522 2099 
L 2534 2105 
C 3533 2450 3539 3125 3539 3244 
C 3539 3838 2925 4416 2003 4416 
L 570 4416 
L 570 0 
L 1094 0 
L 1094 2041 
L 2035 2041 
L 3168 0 
L 3706 0 
L 2522 2099 
z
M 1094 2432 
L 1094 4057 
L 1933 4057 
C 2746 4057 3034 3607 3034 3244 
C 3034 2907 2778 2432 1933 2432 
L 1094 2432 
z
" transform="scale(0.015625)"/>
      </defs>
      <use xlink:href="#CMSS17-46" transform="scale(0.996264)"/>
      <use xlink:href="#CMSS17-61" transform="translate(50.687105 0) scale(0.996264)"/>
      <use xlink:href="#CMSS17-6c" transform="translate(95.609026 0) scale(0.996264)"/>
      <use xlink:href="#CMSS17-73" transform="translate(117.789749 0) scale(0.996264)"/>
      <use xlink:href="#CMSS17-65" transform="translate(153.703291 0) scale(0.996264)"/>
      <use xlink:href="#CMSS17-50" transform="translate(226.571226 0) scale(0.996264)"/>
      <use xlink:href="#CMSS17-6f" transform="translate(283.704358 0) scale(0.996264)"/>
      <use xlink:href="#CMSS17-73" transform="translate(330.547982 0) scale(0.996264)"/>
      <use xlink:href="#CMSS17-69" transform="translate(366.461524 0) scale(0.996264)"/>
      <use xlink:href="#CMSS17-74" transform="translate(388.642247 0) scale(0.996264)"/>
      <use xlink:href="#CMSS17-69" transform="translate(422.473813 0) scale(0.996264)"/>
      <use xlink:href="#CMSS17-76" transform="translate(444.654536 0) scale(0.996264)"/>
      <use xlink:href="#CMSS17-65" transform="translate(487.654678 0) scale(0.996264)"/>
      <use xlink:href="#CMSS17-52" transform="translate(560.522613 0) scale(0.996264)"/>
      <use xlink:href="#CMSS17-61" transform="translate(620.938768 0) scale(0.996264)"/>
      <use xlink:href="#CMSS17-74" transform="translate(665.860688 0) scale(0.996264)"/>
      <use xlink:href="#CMSS17-65" transform="translate(699.692255 0) scale(0.996264)"/>
     </g>
    </g>
   </g>
   <g id="matplotlib.axis_2">
    <g id="ytick_1">
     <g id="line2d_7">
      <defs>
       <path id="m9d6eca168a" d="M 0 0 
L -3.5 0 
" style="stroke: #000000; stroke-width: 0.8"/>
      </defs>
      <g>
       <use xlink:href="#m9d6eca168a" x="39.785756" y="196.13818" style="stroke: #000000; stroke-width: 0.8"/>
      </g>
     </g>
     <g id="text_8">
      <!-- $\mathdefault{0.0}$ -->
      <g transform="translate(20.055677 199.597429) scale(0.1 -0.1)">
       <use xlink:href="#CMR17-30" transform="scale(0.996264)"/>
       <use xlink:href="#CMMI12-3a" transform="translate(45.690477 0) scale(0.996264)"/>
       <use xlink:href="#CMR17-30" transform="translate(72.787654 0) scale(0.996264)"/>
      </g>
     </g>
    </g>
    <g id="ytick_2">
     <g id="line2d_8">
      <g>
       <use xlink:href="#m9d6eca168a" x="39.785756" y="162.87418" style="stroke: #000000; stroke-width: 0.8"/>
      </g>
     </g>
     <g id="text_9">
      <!-- $\mathdefault{0.2}$ -->
      <g transform="translate(20.055677 166.333429) scale(0.1 -0.1)">
       <use xlink:href="#CMR17-30" transform="scale(0.996264)"/>
       <use xlink:href="#CMMI12-3a" transform="translate(45.690477 0) scale(0.996264)"/>
       <use xlink:href="#CMR17-32" transform="translate(72.787654 0) scale(0.996264)"/>
      </g>
     </g>
    </g>
    <g id="ytick_3">
     <g id="line2d_9">
      <g>
       <use xlink:href="#m9d6eca168a" x="39.785756" y="129.61018" style="stroke: #000000; stroke-width: 0.8"/>
      </g>
     </g>
     <g id="text_10">
      <!-- $\mathdefault{0.4}$ -->
      <g transform="translate(20.055677 133.069429) scale(0.1 -0.1)">
       <use xlink:href="#CMR17-30" transform="scale(0.996264)"/>
       <use xlink:href="#CMMI12-3a" transform="translate(45.690477 0) scale(0.996264)"/>
       <use xlink:href="#CMR17-34" transform="translate(72.787654 0) scale(0.996264)"/>
      </g>
     </g>
    </g>
    <g id="ytick_4">
     <g id="line2d_10">
      <g>
       <use xlink:href="#m9d6eca168a" x="39.785756" y="96.34618" style="stroke: #000000; stroke-width: 0.8"/>
      </g>
     </g>
     <g id="text_11">
      <!-- $\mathdefault{0.6}$ -->
      <g transform="translate(20.055677 99.805429) scale(0.1 -0.1)">
       <use xlink:href="#CMR17-30" transform="scale(0.996264)"/>
       <use xlink:href="#CMMI12-3a" transform="translate(45.690477 0) scale(0.996264)"/>
       <use xlink:href="#CMR17-36" transform="translate(72.787654 0) scale(0.996264)"/>
      </g>
     </g>
    </g>
    <g id="ytick_5">
     <g id="line2d_11">
      <g>
       <use xlink:href="#m9d6eca168a" x="39.785756" y="63.08218" style="stroke: #000000; stroke-width: 0.8"/>
      </g>
     </g>
     <g id="text_12">
      <!-- $\mathdefault{0.8}$ -->
      <g transform="translate(20.055677 66.541429) scale(0.1 -0.1)">
       <use xlink:href="#CMR17-30" transform="scale(0.996264)"/>
       <use xlink:href="#CMMI12-3a" transform="translate(45.690477 0) scale(0.996264)"/>
       <use xlink:href="#CMR17-38" transform="translate(72.787654 0) scale(0.996264)"/>
      </g>
     </g>
    </g>
    <g id="ytick_6">
     <g id="line2d_12">
      <g>
       <use xlink:href="#m9d6eca168a" x="39.785756" y="29.81818" style="stroke: #000000; stroke-width: 0.8"/>
      </g>
     </g>
     <g id="text_13">
      <!-- $\mathdefault{1.0}$ -->
      <g transform="translate(20.055677 33.277429) scale(0.1 -0.1)">
       <use xlink:href="#CMR17-31" transform="scale(0.996264)"/>
       <use xlink:href="#CMMI12-3a" transform="translate(45.690477 0) scale(0.996264)"/>
       <use xlink:href="#CMR17-30" transform="translate(72.787654 0) scale(0.996264)"/>
      </g>
     </g>
    </g>
    <g id="text_14">
     <!-- True Positive Rate -->
     <g transform="translate(14.118498 151.521189) rotate(-90) scale(0.1 -0.1)">
      <defs>
       <path id="CMSS17-54" d="M 2317 3987 
L 2848 3987 
C 2925 3987 3002 3980 3078 3980 
L 3878 3980 
L 3878 4396 
L 218 4396 
L 218 3980 
L 1018 3980 
C 1094 3980 1171 3987 1248 3987 
L 1779 3987 
L 1779 0 
L 2317 0 
L 2317 3987 
z
" transform="scale(0.015625)"/>
       <path id="CMSS17-72" d="M 954 1369 
C 954 1974 1395 2379 1958 2392 
L 1958 2816 
C 1549 2809 1165 2604 934 2270 
L 934 2783 
L 480 2783 
L 480 0 
L 954 0 
L 954 1369 
z
" transform="scale(0.015625)"/>
       <path id="CMSS17-75" d="M 2618 2752 
L 2131 2752 
L 2131 976 
C 2131 500 1786 307 1421 307 
C 998 307 960 448 960 712 
L 960 2752 
L 474 2752 
L 474 680 
C 474 179 646 -64 1088 -64 
C 1306 -64 1798 -13 2144 307 
L 2144 -13 
L 2618 -13 
L 2618 2752 
z
" transform="scale(0.015625)"/>
      </defs>
      <use xlink:href="#CMSS17-54" transform="scale(0.996264)"/>
      <use xlink:href="#CMSS17-72" transform="translate(56.012199 0) scale(0.996264)"/>
      <use xlink:href="#CMSS17-75" transform="translate(87.921971 0) scale(0.996264)"/>
      <use xlink:href="#CMSS17-65" transform="translate(136.126914 0) scale(0.996264)"/>
      <use xlink:href="#CMSS17-50" transform="translate(208.994849 0) scale(0.996264)"/>
      <use xlink:href="#CMSS17-6f" transform="translate(266.127981 0) scale(0.996264)"/>
      <use xlink:href="#CMSS17-73" transform="translate(312.971605 0) scale(0.996264)"/>
      <use xlink:href="#CMSS17-69" transform="translate(348.885147 0) scale(0.996264)"/>
      <use xlink:href="#CMSS17-74" transform="translate(371.06587 0) scale(0.996264)"/>
      <use xlink:href="#CMSS17-69" transform="translate(404.897437 0) scale(0.996264)"/>
      <use xlink:href="#CMSS17-76" transform="translate(427.07816 0) scale(0.996264)"/>
      <use xlink:href="#CMSS17-65" transform="translate(470.078301 0) scale(0.996264)"/>
      <use xlink:href="#CMSS17-52" transform="translate(542.946236 0) scale(0.996264)"/>
      <use xlink:href="#CMSS17-61" transform="translate(603.362391 0) scale(0.996264)"/>
      <use xlink:href="#CMSS17-74" transform="translate(648.284312 0) scale(0.996264)"/>
      <use xlink:href="#CMSS17-65" transform="translate(682.115878 0) scale(0.996264)"/>
     </g>
    </g>
   </g>
   <g id="line2d_13">
    <path d="M 48.101756 196.13818 
L 48.101756 194.47498 
L 48.101756 93.01978 
L 48.339356 93.01978 
L 48.339356 84.70378 
L 48.576956 84.70378 
L 48.576956 46.45018 
L 49.052156 46.45018 
L 49.052156 39.79738 
L 49.289756 39.79738 
L 49.289756 38.13418 
L 49.527356 38.13418 
L 49.527356 33.14458 
L 50.240156 33.14458 
L 50.240156 31.48138 
L 52.140956 31.48138 
L 52.140956 29.81818 
L 214.421756 29.81818 
" clip-path="url(#p48320a87df)" style="fill: none; stroke: #00ffff; stroke-width: 1.5; stroke-linecap: square"/>
   </g>
   <g id="line2d_14">
    <path d="M 48.101756 196.13818 
L 48.101756 194.47498 
L 48.101756 94.68298 
L 48.339356 94.68298 
L 48.339356 83.04058 
L 48.576956 83.04058 
L 48.576956 66.40858 
L 48.814556 66.40858 
L 48.814556 54.76618 
L 49.052156 54.76618 
L 49.052156 53.10298 
L 49.289756 53.10298 
L 49.289756 38.13418 
L 49.527356 38.13418 
L 49.527356 36.47098 
L 49.764956 36.47098 
L 49.764956 33.14458 
L 51.428156 33.14458 
L 51.428156 31.48138 
L 51.903356 31.48138 
L 51.903356 29.81818 
L 214.421756 29.81818 
" clip-path="url(#p48320a87df)" style="fill: none; stroke: #ff8c00; stroke-width: 1.5; stroke-linecap: square"/>
   </g>
   <g id="line2d_15">
    <path d="M 48.101756 196.13818 
L 48.101756 194.47498 
L 48.101756 39.79738 
L 48.339356 39.79738 
L 48.339356 38.13418 
L 49.052156 38.13418 
L 49.052156 34.80778 
L 51.903356 34.80778 
L 51.903356 33.14458 
L 54.041756 33.14458 
L 54.041756 31.48138 
L 54.279356 31.48138 
L 54.279356 29.81818 
L 214.421756 29.81818 
" clip-path="url(#p48320a87df)" style="fill: none; stroke: #6495ed; stroke-width: 1.5; stroke-linecap: square"/>
   </g>
   <g id="line2d_16">
    <path d="M 48.101756 196.13818 
L 48.101756 194.47498 
L 48.101756 51.43978 
L 48.339356 51.43978 
L 48.339356 48.11338 
L 48.576956 48.11338 
L 48.576956 44.78698 
L 48.814556 44.78698 
L 48.814556 39.79738 
L 49.052156 39.79738 
L 49.052156 38.13418 
L 49.764956 38.13418 
L 49.764956 36.47098 
L 50.477756 36.47098 
L 50.477756 34.80778 
L 51.190556 34.80778 
L 51.190556 33.14458 
L 54.279356 33.14458 
L 54.279356 31.48138 
L 56.417756 31.48138 
L 56.417756 29.81818 
L 214.421756 29.81818 
" clip-path="url(#p48320a87df)" style="fill: none; stroke: #ff0000; stroke-width: 1.5; stroke-linecap: square"/>
   </g>
   <g id="line2d_17">
    <path d="M 48.101756 196.13818 
L 48.101756 182.83258 
L 48.101756 74.72458 
L 48.339356 74.72458 
L 48.339356 59.75578 
L 48.576956 59.75578 
L 48.576956 48.11338 
L 48.814556 48.11338 
L 48.814556 43.12378 
L 49.289756 43.12378 
L 49.289756 36.47098 
L 49.527356 36.47098 
L 49.527356 34.80778 
L 50.477756 34.80778 
L 50.477756 31.48138 
L 51.190556 31.48138 
L 51.190556 29.81818 
L 214.421756 29.81818 
" clip-path="url(#p48320a87df)" style="fill: none; stroke: #008000; stroke-width: 1.5; stroke-linecap: square"/>
   </g>
   <g id="line2d_18">
    <path d="M 48.101756 196.13818 
L 48.101756 177.84298 
L 48.101756 169.52698 
L 48.101756 166.20058 
L 48.101756 93.01978 
L 48.339356 93.01978 
L 48.339356 63.08218 
L 48.576956 63.08218 
L 48.576956 51.43978 
L 48.814556 51.43978 
L 48.814556 41.46058 
L 49.052156 41.46058 
L 49.052156 36.47098 
L 49.764956 36.47098 
L 49.764956 34.80778 
L 51.903356 34.80778 
L 51.903356 33.14458 
L 55.229756 33.14458 
L 55.229756 31.48138 
L 55.704956 31.48138 
L 55.704956 29.81818 
L 214.421756 29.81818 
" clip-path="url(#p48320a87df)" style="fill: none; stroke: #800080; stroke-width: 1.5; stroke-linecap: square"/>
   </g>
   <g id="line2d_19">
    <path d="M 48.101756 196.13818 
L 48.101756 162.87418 
L 48.101756 161.21098 
L 48.101756 157.88458 
L 48.101756 43.12378 
L 48.339356 43.12378 
L 48.339356 39.79738 
L 48.576956 39.79738 
L 48.576956 38.13418 
L 48.814556 38.13418 
L 48.814556 33.14458 
L 52.616156 33.14458 
L 52.616156 31.48138 
L 62.357756 31.48138 
L 62.357756 29.81818 
L 214.421756 29.81818 
" clip-path="url(#p48320a87df)" style="fill: none; stroke: #ffc0cb; stroke-width: 1.5; stroke-linecap: square"/>
   </g>
   <g id="line2d_20">
    <path d="M 48.101756 196.13818 
L 48.101756 167.86378 
L 48.101756 164.53738 
L 48.101756 154.55818 
L 48.101756 151.23178 
L 48.101756 43.12378 
L 48.576956 43.12378 
L 48.576956 39.79738 
L 48.814556 39.79738 
L 48.814556 38.13418 
L 49.289756 38.13418 
L 49.289756 36.47098 
L 50.002556 36.47098 
L 50.002556 34.80778 
L 50.715356 34.80778 
L 50.715356 33.14458 
L 57.368156 33.14458 
L 57.368156 31.48138 
L 80.890556 31.48138 
L 80.890556 29.81818 
L 214.421756 29.81818 
" clip-path="url(#p48320a87df)" style="fill: none; stroke: #0000ff; stroke-width: 1.5; stroke-linecap: square"/>
   </g>
   <g id="line2d_21">
    <path d="M 48.101756 196.13818 
L 214.421756 29.81818 
" clip-path="url(#p48320a87df)" style="fill: none; stroke-dasharray: 5.55,2.4; stroke-dashoffset: 0; stroke: #808080; stroke-width: 1.5"/>
   </g>
   <g id="patch_3">
    <path d="M 39.785756 204.45418 
L 39.785756 21.50218 
" style="fill: none; stroke: #000000; stroke-width: 0.8; stroke-linejoin: miter; stroke-linecap: square"/>
   </g>
   <g id="patch_4">
    <path d="M 222.737756 204.45418 
L 222.737756 21.50218 
" style="fill: none; stroke: #000000; stroke-width: 0.8; stroke-linejoin: miter; stroke-linecap: square"/>
   </g>
   <g id="patch_5">
    <path d="M 39.785756 204.45418 
L 222.737756 204.45418 
" style="fill: none; stroke: #000000; stroke-width: 0.8; stroke-linejoin: miter; stroke-linecap: square"/>
   </g>
   <g id="patch_6">
    <path d="M 39.785756 21.50218 
L 222.737756 21.50218 
" style="fill: none; stroke: #000000; stroke-width: 0.8; stroke-linejoin: miter; stroke-linecap: square"/>
   </g>
   <g id="text_15">
    <!-- ROC Curves: One-vs-Rest -->
    <g transform="translate(67.536887 15.50218) scale(0.12 -0.12)">
     <defs>
      <path id="CMSS17-4f" d="M 4096 2201 
C 4096 3541 3219 4544 2214 4544 
C 1210 4544 333 3535 333 2201 
C 333 855 1222 -128 2214 -128 
C 3206 -128 4096 855 4096 2201 
z
M 2214 275 
C 1510 275 870 1067 870 2285 
C 870 3470 1549 4140 2214 4140 
C 2880 4140 3558 3470 3558 2285 
C 3558 1061 2912 275 2214 275 
z
" transform="scale(0.015625)"/>
      <path id="CMSS17-43" d="M 3501 705 
C 3072 416 2874 332 2355 332 
C 1459 332 934 1304 934 2191 
C 934 3137 1472 4070 2381 4070 
C 2790 4070 3059 3954 3386 3748 
L 3475 4255 
C 3168 4409 2778 4480 2387 4480 
C 1158 4480 397 3343 397 2191 
C 397 924 1299 -77 2323 -77 
C 2874 -77 3066 -32 3539 268 
L 3501 705 
z
" transform="scale(0.015625)"/>
      <path id="CMSS17-3a" d="M 1088 2752 
L 576 2752 
L 576 2239 
L 1088 2239 
L 1088 2752 
z
M 576 512 
L 576 0 
L 1088 0 
L 1088 512 
L 576 512 
z
" transform="scale(0.015625)"/>
      <path id="CMSS17-6e" d="M 2618 1878 
C 2618 2283 2522 2816 1798 2816 
C 1389 2816 1120 2604 941 2386 
L 941 2783 
L 474 2783 
L 474 0 
L 960 0 
L 960 1556 
C 960 1962 1114 2425 1549 2425 
C 2112 2425 2131 2045 2131 1826 
L 2131 0 
L 2618 0 
L 2618 1878 
z
" transform="scale(0.015625)"/>
      <path id="CMSS17-2d" d="M 1664 1216 
L 1664 1587 
L 64 1587 
L 64 1216 
L 1664 1216 
z
" transform="scale(0.015625)"/>
     </defs>
     <use xlink:href="#CMSS17-52" transform="scale(0.996264)"/>
     <use xlink:href="#CMSS17-4f" transform="translate(60.416155 0) scale(0.996264)"/>
     <use xlink:href="#CMSS17-43" transform="translate(129.44041 0) scale(0.996264)"/>
     <use xlink:href="#CMSS17-43" transform="translate(220.525295 0) scale(0.996264)"/>
     <use xlink:href="#CMSS17-75" transform="translate(280.381066 0) scale(0.996264)"/>
     <use xlink:href="#CMSS17-72" transform="translate(328.586009 0) scale(0.996264)"/>
     <use xlink:href="#CMSS17-76" transform="translate(360.495782 0) scale(0.996264)"/>
     <use xlink:href="#CMSS17-65" transform="translate(403.495923 0) scale(0.996264)"/>
     <use xlink:href="#CMSS17-73" transform="translate(445.134746 0) scale(0.996264)"/>
     <use xlink:href="#CMSS17-3a" transform="translate(481.048288 0) scale(0.996264)"/>
     <use xlink:href="#CMSS17-4f" transform="translate(548.711299 0) scale(0.996264)"/>
     <use xlink:href="#CMSS17-6e" transform="translate(617.735555 0) scale(0.996264)"/>
     <use xlink:href="#CMSS17-65" transform="translate(665.940498 0) scale(0.996264)"/>
     <use xlink:href="#CMSS17-2d" transform="translate(707.57932 0) scale(0.996264)"/>
     <use xlink:href="#CMSS17-76" transform="translate(738.808433 0) scale(0.996264)"/>
     <use xlink:href="#CMSS17-73" transform="translate(781.808574 0) scale(0.996264)"/>
     <use xlink:href="#CMSS17-2d" transform="translate(817.722116 0) scale(0.996264)"/>
     <use xlink:href="#CMSS17-52" transform="translate(848.951229 0) scale(0.996264)"/>
     <use xlink:href="#CMSS17-65" transform="translate(909.367384 0) scale(0.996264)"/>
     <use xlink:href="#CMSS17-73" transform="translate(951.006206 0) scale(0.996264)"/>
     <use xlink:href="#CMSS17-74" transform="translate(986.919748 0) scale(0.996264)"/>
    </g>
   </g>
   <g id="legend_1">
    <g id="patch_7">
     <path d="M 91.513969 199.45418 
L 215.737756 199.45418 
Q 217.737756 199.45418 217.737756 197.45418 
L 217.737756 78.753059 
Q 217.737756 76.753059 215.737756 76.753059 
L 91.513969 76.753059 
Q 89.513969 76.753059 89.513969 78.753059 
L 89.513969 197.45418 
Q 89.513969 199.45418 91.513969 199.45418 
z
" style="fill: #ffffff; opacity: 0.8; stroke: #cccccc; stroke-linejoin: miter"/>
    </g>
    <g id="line2d_22">
     <path d="M 93.513969 84.725039 
L 103.513969 84.725039 
L 113.513969 84.725039 
" style="fill: none; stroke: #00ffff; stroke-width: 1.5; stroke-linecap: square"/>
    </g>
    <g id="text_16">
     <!-- Class 1 (AUC = 1.00) -->
     <g transform="translate(121.513969 88.225039) scale(0.1 -0.1)">
      <defs>
       <path id="CMSS17-31" d="M 1818 4288 
L 1696 4288 
C 1350 3949 947 3902 538 3891 
L 538 3520 
C 723 3526 1024 3539 1325 3673 
L 1325 371 
L 570 371 
L 570 0 
L 2573 0 
L 2573 371 
L 1818 371 
L 1818 4288 
z
" transform="scale(0.015625)"/>
       <path id="CMSS17-28" d="M 1613 4800 
C 1267 4447 474 3627 474 1603 
C 474 -428 1267 -1242 1613 -1600 
L 2003 -1600 
C 1216 -781 960 366 960 1596 
C 960 2820 1203 3973 2003 4800 
L 1613 4800 
z
" transform="scale(0.015625)"/>
       <path id="CMSS17-41" d="M 2272 4416 
L 1722 4416 
L 166 0 
L 653 0 
L 1101 1280 
L 2816 1280 
L 3270 0 
L 3827 0 
L 2272 4416 
z
M 2694 1638 
L 1222 1638 
C 1530 2530 1914 3638 1958 3924 
L 1965 3924 
C 2010 3663 2138 3281 2246 2956 
L 2694 1638 
z
" transform="scale(0.015625)"/>
       <path id="CMSS17-55" d="M 3552 4416 
L 3066 4416 
L 3066 1459 
C 3066 608 2547 230 2074 230 
C 1587 230 1101 627 1101 1452 
L 1101 4416 
L 563 4416 
L 563 1465 
C 563 544 1274 -128 2067 -128 
C 2861 -128 3552 544 3552 1465 
L 3552 4416 
z
" transform="scale(0.015625)"/>
       <path id="CMSS17-3d" d="M 4147 2048 
C 4243 2048 4339 2048 4339 2156 
C 4339 2272 4230 2272 4122 2272 
L 550 2272 
C 442 2272 333 2272 333 2156 
C 333 2048 429 2048 525 2048 
L 4147 2048 
z
M 4122 927 
C 4230 927 4339 927 4339 1043 
C 4339 1152 4243 1152 4147 1152 
L 525 1152 
C 429 1152 333 1152 333 1043 
C 333 927 442 927 550 927 
L 4122 927 
z
" transform="scale(0.015625)"/>
       <path id="CMSS17-2e" d="M 1088 512 
L 576 512 
L 576 0 
L 1088 0 
L 1088 512 
z
" transform="scale(0.015625)"/>
       <path id="CMSS17-30" d="M 2758 2073 
C 2758 2439 2752 3120 2490 3647 
C 2227 4153 1805 4288 1504 4288 
C 1069 4288 698 4031 506 3621 
C 301 3191 243 2748 243 2073 
C 243 1611 262 1046 493 551 
C 755 6 1197 -128 1498 -128 
C 1894 -128 2278 83 2496 525 
C 2720 988 2758 1495 2758 2073 
z
M 1498 262 
C 1011 262 864 821 819 1007 
C 742 1328 730 1636 730 2144 
C 730 2542 730 2992 851 3345 
C 998 3756 1254 3897 1498 3897 
C 1971 3897 2125 3422 2176 3255 
C 2272 2915 2272 2516 2272 2144 
C 2272 1546 2272 262 1498 262 
z
" transform="scale(0.015625)"/>
       <path id="CMSS17-29" d="M 723 -1600 
C 1069 -1248 1862 -428 1862 1596 
C 1862 3627 1069 4440 723 4800 
L 333 4800 
C 1120 3979 1376 2833 1376 1603 
C 1376 379 1133 -774 333 -1600 
L 723 -1600 
z
" transform="scale(0.015625)"/>
      </defs>
      <use xlink:href="#CMSS17-43" transform="scale(0.996264)"/>
      <use xlink:href="#CMSS17-6c" transform="translate(59.855772 0) scale(0.996264)"/>
      <use xlink:href="#CMSS17-61" transform="translate(82.036495 0) scale(0.996264)"/>
      <use xlink:href="#CMSS17-73" transform="translate(126.958415 0) scale(0.996264)"/>
      <use xlink:href="#CMSS17-73" transform="translate(162.871957 0) scale(0.996264)"/>
      <use xlink:href="#CMSS17-31" transform="translate(230.014612 0) scale(0.996264)"/>
      <use xlink:href="#CMSS17-28" transform="translate(308.087348 0) scale(0.996264)"/>
      <use xlink:href="#CMSS17-41" transform="translate(344.521262 0) scale(0.996264)"/>
      <use xlink:href="#CMSS17-55" transform="translate(404.136663 0) scale(0.996264)"/>
      <use xlink:href="#CMSS17-43" transform="translate(468.276404 0) scale(0.996264)"/>
      <use xlink:href="#CMSS17-3d" transform="translate(559.361288 0) scale(0.996264)"/>
      <use xlink:href="#CMSS17-31" transform="translate(663.458336 0) scale(0.996264)"/>
      <use xlink:href="#CMSS17-2e" transform="translate(710.301959 0) scale(0.996264)"/>
      <use xlink:href="#CMSS17-30" transform="translate(736.326164 0) scale(0.996264)"/>
      <use xlink:href="#CMSS17-30" transform="translate(783.169787 0) scale(0.996264)"/>
      <use xlink:href="#CMSS17-29" transform="translate(830.013411 0) scale(0.996264)"/>
     </g>
    </g>
    <g id="line2d_23">
     <path d="M 93.513969 99.687679 
L 103.513969 99.687679 
L 113.513969 99.687679 
" style="fill: none; stroke: #ff8c00; stroke-width: 1.5; stroke-linecap: square"/>
    </g>
    <g id="text_17">
     <!-- Class 2 (AUC = 1.00) -->
     <g transform="translate(121.513969 103.187679) scale(0.1 -0.1)">
      <defs>
       <path id="CMSS17-32" d="M 1651 1353 
C 1830 1538 2099 1761 2285 1984 
C 2464 2201 2701 2507 2701 2953 
C 2701 3655 2227 4288 1421 4288 
C 787 4288 422 3891 250 3272 
L 499 2928 
C 640 3508 838 3878 1338 3878 
C 1888 3878 2195 3431 2195 2940 
C 2195 2354 1747 1901 1408 1563 
C 1030 1187 659 805 301 409 
L 301 0 
L 2701 0 
L 2701 435 
L 1613 435 
C 1536 435 1459 428 1382 428 
L 742 428 
L 742 435 
L 1651 1353 
z
" transform="scale(0.015625)"/>
      </defs>
      <use xlink:href="#CMSS17-43" transform="scale(0.996264)"/>
      <use xlink:href="#CMSS17-6c" transform="translate(59.855772 0) scale(0.996264)"/>
      <use xlink:href="#CMSS17-61" transform="translate(82.036495 0) scale(0.996264)"/>
      <use xlink:href="#CMSS17-73" transform="translate(126.958415 0) scale(0.996264)"/>
      <use xlink:href="#CMSS17-73" transform="translate(162.871957 0) scale(0.996264)"/>
      <use xlink:href="#CMSS17-32" transform="translate(230.014612 0) scale(0.996264)"/>
      <use xlink:href="#CMSS17-28" transform="translate(308.087348 0) scale(0.996264)"/>
      <use xlink:href="#CMSS17-41" transform="translate(344.521262 0) scale(0.996264)"/>
      <use xlink:href="#CMSS17-55" transform="translate(404.136663 0) scale(0.996264)"/>
      <use xlink:href="#CMSS17-43" transform="translate(468.276404 0) scale(0.996264)"/>
      <use xlink:href="#CMSS17-3d" transform="translate(559.361288 0) scale(0.996264)"/>
      <use xlink:href="#CMSS17-31" transform="translate(663.458336 0) scale(0.996264)"/>
      <use xlink:href="#CMSS17-2e" transform="translate(710.301959 0) scale(0.996264)"/>
      <use xlink:href="#CMSS17-30" transform="translate(736.326164 0) scale(0.996264)"/>
      <use xlink:href="#CMSS17-30" transform="translate(783.169787 0) scale(0.996264)"/>
      <use xlink:href="#CMSS17-29" transform="translate(830.013411 0) scale(0.996264)"/>
     </g>
    </g>
    <g id="line2d_24">
     <path d="M 93.513969 114.650319 
L 103.513969 114.650319 
L 113.513969 114.650319 
" style="fill: none; stroke: #6495ed; stroke-width: 1.5; stroke-linecap: square"/>
    </g>
    <g id="text_18">
     <!-- Class 3 (AUC = 1.00) -->
     <g transform="translate(121.513969 118.150319) scale(0.1 -0.1)">
      <defs>
       <path id="CMSS17-33" d="M 1005 2060 
L 1440 2060 
C 2042 2060 2214 1532 2214 1164 
C 2214 662 1933 268 1472 268 
C 1114 268 608 449 320 926 
C 275 700 275 687 250 533 
C 550 89 1037 -128 1485 -128 
C 2214 -128 2752 481 2752 1158 
C 2752 1667 2400 2092 1920 2252 
C 2304 2463 2586 2860 2586 3321 
C 2586 3859 2093 4288 1491 4288 
C 941 4288 512 3948 333 3583 
C 378 3519 493 3334 550 3238 
C 691 3615 1056 3897 1485 3897 
C 1843 3897 2080 3660 2080 3321 
C 2080 2969 1856 2585 1478 2496 
C 1453 2496 1056 2457 1005 2451 
L 1005 2060 
z
" transform="scale(0.015625)"/>
      </defs>
      <use xlink:href="#CMSS17-43" transform="scale(0.996264)"/>
      <use xlink:href="#CMSS17-6c" transform="translate(59.855772 0) scale(0.996264)"/>
      <use xlink:href="#CMSS17-61" transform="translate(82.036495 0) scale(0.996264)"/>
      <use xlink:href="#CMSS17-73" transform="translate(126.958415 0) scale(0.996264)"/>
      <use xlink:href="#CMSS17-73" transform="translate(162.871957 0) scale(0.996264)"/>
      <use xlink:href="#CMSS17-33" transform="translate(230.014612 0) scale(0.996264)"/>
      <use xlink:href="#CMSS17-28" transform="translate(308.087348 0) scale(0.996264)"/>
      <use xlink:href="#CMSS17-41" transform="translate(344.521262 0) scale(0.996264)"/>
      <use xlink:href="#CMSS17-55" transform="translate(404.136663 0) scale(0.996264)"/>
      <use xlink:href="#CMSS17-43" transform="translate(468.276404 0) scale(0.996264)"/>
      <use xlink:href="#CMSS17-3d" transform="translate(559.361288 0) scale(0.996264)"/>
      <use xlink:href="#CMSS17-31" transform="translate(663.458336 0) scale(0.996264)"/>
      <use xlink:href="#CMSS17-2e" transform="translate(710.301959 0) scale(0.996264)"/>
      <use xlink:href="#CMSS17-30" transform="translate(736.326164 0) scale(0.996264)"/>
      <use xlink:href="#CMSS17-30" transform="translate(783.169787 0) scale(0.996264)"/>
      <use xlink:href="#CMSS17-29" transform="translate(830.013411 0) scale(0.996264)"/>
     </g>
    </g>
    <g id="line2d_25">
     <path d="M 93.513969 129.612959 
L 103.513969 129.612959 
L 113.513969 129.612959 
" style="fill: none; stroke: #ff0000; stroke-width: 1.5; stroke-linecap: square"/>
    </g>
    <g id="text_19">
     <!-- Class 4 (AUC = 1.00) -->
     <g transform="translate(121.513969 133.112959) scale(0.1 -0.1)">
      <defs>
       <path id="CMSS17-34" d="M 2253 1088 
L 2835 1088 
L 2835 1478 
L 2253 1478 
L 2253 4224 
L 1690 4224 
L 166 1478 
L 166 1088 
L 1747 1088 
L 1747 0 
L 2253 0 
L 2253 1088 
z
M 659 1478 
C 1030 2139 1766 3474 1766 3927 
L 1766 1478 
L 659 1478 
z
" transform="scale(0.015625)"/>
      </defs>
      <use xlink:href="#CMSS17-43" transform="scale(0.996264)"/>
      <use xlink:href="#CMSS17-6c" transform="translate(59.855772 0) scale(0.996264)"/>
      <use xlink:href="#CMSS17-61" transform="translate(82.036495 0) scale(0.996264)"/>
      <use xlink:href="#CMSS17-73" transform="translate(126.958415 0) scale(0.996264)"/>
      <use xlink:href="#CMSS17-73" transform="translate(162.871957 0) scale(0.996264)"/>
      <use xlink:href="#CMSS17-34" transform="translate(230.014612 0) scale(0.996264)"/>
      <use xlink:href="#CMSS17-28" transform="translate(308.087348 0) scale(0.996264)"/>
      <use xlink:href="#CMSS17-41" transform="translate(344.521262 0) scale(0.996264)"/>
      <use xlink:href="#CMSS17-55" transform="translate(404.136663 0) scale(0.996264)"/>
      <use xlink:href="#CMSS17-43" transform="translate(468.276404 0) scale(0.996264)"/>
      <use xlink:href="#CMSS17-3d" transform="translate(559.361288 0) scale(0.996264)"/>
      <use xlink:href="#CMSS17-31" transform="translate(663.458336 0) scale(0.996264)"/>
      <use xlink:href="#CMSS17-2e" transform="translate(710.301959 0) scale(0.996264)"/>
      <use xlink:href="#CMSS17-30" transform="translate(736.326164 0) scale(0.996264)"/>
      <use xlink:href="#CMSS17-30" transform="translate(783.169787 0) scale(0.996264)"/>
      <use xlink:href="#CMSS17-29" transform="translate(830.013411 0) scale(0.996264)"/>
     </g>
    </g>
    <g id="line2d_26">
     <path d="M 93.513969 144.575599 
L 103.513969 144.575599 
L 113.513969 144.575599 
" style="fill: none; stroke: #008000; stroke-width: 1.5; stroke-linecap: square"/>
    </g>
    <g id="text_20">
     <!-- Class 5 (AUC = 1.00) -->
     <g transform="translate(121.513969 148.075599) scale(0.1 -0.1)">
      <defs>
       <path id="CMSS17-35" d="M 934 3814 
L 2502 3814 
L 2502 4224 
L 467 4224 
L 467 1830 
L 896 1830 
C 1011 2103 1248 2304 1555 2304 
C 1843 2304 2163 2044 2163 1299 
C 2163 502 1709 268 1376 268 
C 966 268 589 521 422 871 
L 218 508 
C 512 51 992 -128 1376 -128 
C 2118 -128 2701 508 2701 1286 
C 2701 2083 2182 2694 1562 2694 
C 1338 2694 1120 2617 934 2464 
L 934 3814 
z
" transform="scale(0.015625)"/>
      </defs>
      <use xlink:href="#CMSS17-43" transform="scale(0.996264)"/>
      <use xlink:href="#CMSS17-6c" transform="translate(59.855772 0) scale(0.996264)"/>
      <use xlink:href="#CMSS17-61" transform="translate(82.036495 0) scale(0.996264)"/>
      <use xlink:href="#CMSS17-73" transform="translate(126.958415 0) scale(0.996264)"/>
      <use xlink:href="#CMSS17-73" transform="translate(162.871957 0) scale(0.996264)"/>
      <use xlink:href="#CMSS17-35" transform="translate(230.014612 0) scale(0.996264)"/>
      <use xlink:href="#CMSS17-28" transform="translate(308.087348 0) scale(0.996264)"/>
      <use xlink:href="#CMSS17-41" transform="translate(344.521262 0) scale(0.996264)"/>
      <use xlink:href="#CMSS17-55" transform="translate(404.136663 0) scale(0.996264)"/>
      <use xlink:href="#CMSS17-43" transform="translate(468.276404 0) scale(0.996264)"/>
      <use xlink:href="#CMSS17-3d" transform="translate(559.361288 0) scale(0.996264)"/>
      <use xlink:href="#CMSS17-31" transform="translate(663.458336 0) scale(0.996264)"/>
      <use xlink:href="#CMSS17-2e" transform="translate(710.301959 0) scale(0.996264)"/>
      <use xlink:href="#CMSS17-30" transform="translate(736.326164 0) scale(0.996264)"/>
      <use xlink:href="#CMSS17-30" transform="translate(783.169787 0) scale(0.996264)"/>
      <use xlink:href="#CMSS17-29" transform="translate(830.013411 0) scale(0.996264)"/>
     </g>
    </g>
    <g id="line2d_27">
     <path d="M 93.513969 159.53824 
L 103.513969 159.53824 
L 113.513969 159.53824 
" style="fill: none; stroke: #800080; stroke-width: 1.5; stroke-linecap: square"/>
    </g>
    <g id="text_21">
     <!-- Class 6 (AUC = 1.00) -->
     <g transform="translate(121.513969 163.03824) scale(0.1 -0.1)">
      <defs>
       <path id="CMSS17-36" d="M 2496 4159 
C 2227 4268 2035 4288 1856 4288 
C 1024 4288 250 3408 250 2023 
C 250 268 986 -128 1510 -128 
C 1798 -128 2086 -39 2362 281 
C 2643 619 2752 900 2752 1392 
C 2752 2183 2362 2886 1779 2886 
C 1357 2886 992 2662 768 2381 
C 832 3290 1254 3897 1862 3897 
C 2029 3897 2246 3871 2496 3760 
L 2496 4159 
z
M 774 1372 
C 774 1423 774 1455 781 1551 
C 781 2049 1069 2496 1536 2496 
C 1837 2496 1990 2336 2106 2138 
C 2240 1889 2246 1653 2246 1392 
C 2246 1143 2246 894 2099 638 
C 1978 441 1818 268 1510 268 
C 902 268 800 1117 774 1372 
z
" transform="scale(0.015625)"/>
      </defs>
      <use xlink:href="#CMSS17-43" transform="scale(0.996264)"/>
      <use xlink:href="#CMSS17-6c" transform="translate(59.855772 0) scale(0.996264)"/>
      <use xlink:href="#CMSS17-61" transform="translate(82.036495 0) scale(0.996264)"/>
      <use xlink:href="#CMSS17-73" transform="translate(126.958415 0) scale(0.996264)"/>
      <use xlink:href="#CMSS17-73" transform="translate(162.871957 0) scale(0.996264)"/>
      <use xlink:href="#CMSS17-36" transform="translate(230.014612 0) scale(0.996264)"/>
      <use xlink:href="#CMSS17-28" transform="translate(308.087348 0) scale(0.996264)"/>
      <use xlink:href="#CMSS17-41" transform="translate(344.521262 0) scale(0.996264)"/>
      <use xlink:href="#CMSS17-55" transform="translate(404.136663 0) scale(0.996264)"/>
      <use xlink:href="#CMSS17-43" transform="translate(468.276404 0) scale(0.996264)"/>
      <use xlink:href="#CMSS17-3d" transform="translate(559.361288 0) scale(0.996264)"/>
      <use xlink:href="#CMSS17-31" transform="translate(663.458336 0) scale(0.996264)"/>
      <use xlink:href="#CMSS17-2e" transform="translate(710.301959 0) scale(0.996264)"/>
      <use xlink:href="#CMSS17-30" transform="translate(736.326164 0) scale(0.996264)"/>
      <use xlink:href="#CMSS17-30" transform="translate(783.169787 0) scale(0.996264)"/>
      <use xlink:href="#CMSS17-29" transform="translate(830.013411 0) scale(0.996264)"/>
     </g>
    </g>
    <g id="line2d_28">
     <path d="M 93.513969 174.50088 
L 103.513969 174.50088 
L 113.513969 174.50088 
" style="fill: none; stroke: #ffc0cb; stroke-width: 1.5; stroke-linecap: square"/>
    </g>
    <g id="text_22">
     <!-- Class 7 (AUC = 1.00) -->
     <g transform="translate(121.513969 178.00088) scale(0.1 -0.1)">
      <defs>
       <path id="CMSS17-37" d="M 1389 3788 
C 1466 3788 1542 3795 1619 3795 
L 2355 3795 
C 1440 2715 915 1350 915 -64 
L 1427 -64 
C 1427 1305 1875 2695 2752 3807 
L 2752 4224 
L 250 4224 
L 250 3788 
L 1389 3788 
z
" transform="scale(0.015625)"/>
      </defs>
      <use xlink:href="#CMSS17-43" transform="scale(0.996264)"/>
      <use xlink:href="#CMSS17-6c" transform="translate(59.855772 0) scale(0.996264)"/>
      <use xlink:href="#CMSS17-61" transform="translate(82.036495 0) scale(0.996264)"/>
      <use xlink:href="#CMSS17-73" transform="translate(126.958415 0) scale(0.996264)"/>
      <use xlink:href="#CMSS17-73" transform="translate(162.871957 0) scale(0.996264)"/>
      <use xlink:href="#CMSS17-37" transform="translate(230.014612 0) scale(0.996264)"/>
      <use xlink:href="#CMSS17-28" transform="translate(308.087348 0) scale(0.996264)"/>
      <use xlink:href="#CMSS17-41" transform="translate(344.521262 0) scale(0.996264)"/>
      <use xlink:href="#CMSS17-55" transform="translate(404.136663 0) scale(0.996264)"/>
      <use xlink:href="#CMSS17-43" transform="translate(468.276404 0) scale(0.996264)"/>
      <use xlink:href="#CMSS17-3d" transform="translate(559.361288 0) scale(0.996264)"/>
      <use xlink:href="#CMSS17-31" transform="translate(663.458336 0) scale(0.996264)"/>
      <use xlink:href="#CMSS17-2e" transform="translate(710.301959 0) scale(0.996264)"/>
      <use xlink:href="#CMSS17-30" transform="translate(736.326164 0) scale(0.996264)"/>
      <use xlink:href="#CMSS17-30" transform="translate(783.169787 0) scale(0.996264)"/>
      <use xlink:href="#CMSS17-29" transform="translate(830.013411 0) scale(0.996264)"/>
     </g>
    </g>
    <g id="line2d_29">
     <path d="M 93.513969 189.46352 
L 103.513969 189.46352 
L 113.513969 189.46352 
" style="fill: none; stroke: #0000ff; stroke-width: 1.5; stroke-linecap: square"/>
    </g>
    <g id="text_23">
     <!-- Class 8 (AUC = 1.00) -->
     <g transform="translate(121.513969 192.96352) scale(0.1 -0.1)">
      <defs>
       <path id="CMSS17-38" d="M 1933 2246 
C 2419 2406 2669 2793 2669 3174 
C 2669 3774 2157 4288 1504 4288 
C 826 4288 333 3755 333 3174 
C 333 2799 576 2412 1069 2246 
C 442 2003 250 1516 250 1152 
C 250 448 819 -128 1498 -128 
C 2202 -128 2752 460 2752 1152 
C 2752 1574 2502 2022 1933 2246 
z
M 1504 2438 
C 1075 2438 787 2728 787 3167 
C 787 3613 1075 3897 1504 3897 
C 1901 3897 2214 3639 2214 3167 
C 2214 2703 1907 2438 1504 2438 
z
M 1504 268 
C 1139 268 749 518 749 1158 
C 749 1817 1184 2048 1498 2048 
C 1843 2048 2253 1804 2253 1158 
C 2253 492 1830 268 1504 268 
z
" transform="scale(0.015625)"/>
      </defs>
      <use xlink:href="#CMSS17-43" transform="scale(0.996264)"/>
      <use xlink:href="#CMSS17-6c" transform="translate(59.855772 0) scale(0.996264)"/>
      <use xlink:href="#CMSS17-61" transform="translate(82.036495 0) scale(0.996264)"/>
      <use xlink:href="#CMSS17-73" transform="translate(126.958415 0) scale(0.996264)"/>
      <use xlink:href="#CMSS17-73" transform="translate(162.871957 0) scale(0.996264)"/>
      <use xlink:href="#CMSS17-38" transform="translate(230.014612 0) scale(0.996264)"/>
      <use xlink:href="#CMSS17-28" transform="translate(308.087348 0) scale(0.996264)"/>
      <use xlink:href="#CMSS17-41" transform="translate(344.521262 0) scale(0.996264)"/>
      <use xlink:href="#CMSS17-55" transform="translate(404.136663 0) scale(0.996264)"/>
      <use xlink:href="#CMSS17-43" transform="translate(468.276404 0) scale(0.996264)"/>
      <use xlink:href="#CMSS17-3d" transform="translate(559.361288 0) scale(0.996264)"/>
      <use xlink:href="#CMSS17-31" transform="translate(663.458336 0) scale(0.996264)"/>
      <use xlink:href="#CMSS17-2e" transform="translate(710.301959 0) scale(0.996264)"/>
      <use xlink:href="#CMSS17-30" transform="translate(736.326164 0) scale(0.996264)"/>
      <use xlink:href="#CMSS17-30" transform="translate(783.169787 0) scale(0.996264)"/>
      <use xlink:href="#CMSS17-29" transform="translate(830.013411 0) scale(0.996264)"/>
     </g>
    </g>
   </g>
  </g>
 </g>
 <defs>
  <clipPath id="p48320a87df">
   <rect x="39.785756" y="21.50218" width="182.952" height="182.952"/>
  </clipPath>
 </defs>
</svg>
